PathFileType	4	(X/Y/Z)	C:/Users/opensim2020/Desktop/walking_exp_matlab/subject03_walking12_straight_02.trc																																																																																																																																														
DataRate	CameraRate	NumFrames	NumMarkers	Units	OrigDataRate	OrigDataStartFrame	OrigNumFrames																																																																																																																																										
100	100	4	48	mm	100	1264	187																																																																																																																																										
Frame#	Time	LFHD			RFHD			LBHD			RBHD			C7			T10			CLAV			STRN			RBAK			LSHO			LUPA			LELB			LFRM			LWRA			LWRB			LFIN			RSHO			RUPA			RELB			RFRM			RWRA			RWRB			RFIN			LASI			RASI			LPSI			RPSI			LTHI			LKNE			LTIB			LANK			LHEE			LTOE			RTHI			RKNE			RTIB			RANK			RHEE			RTOE			*39			*40			*41			*42			*43			*44			*45			*46			*47		
		X1	Y1	Z1	X2	Y2	Z2	X3	Y3	Z3	X4	Y4	Z4	X5	Y5	Z5	X6	Y6	Z6	X7	Y7	Z7	X8	Y8	Z8	X9	Y9	Z9	X10	Y10	Z10	X11	Y11	Z11	X12	Y12	Z12	X13	Y13	Z13	X14	Y14	Z14	X15	Y15	Z15	X16	Y16	Z16	X17	Y17	Z17	X18	Y18	Z18	X19	Y19	Z19	X20	Y20	Z20	X21	Y21	Z21	X22	Y22	Z22	X23	Y23	Z23	X24	Y24	Z24	X25	Y25	Z25	X26	Y26	Z26	X27	Y27	Z27	X28	Y28	Z28	X29	Y29	Z29	X30	Y30	Z30	X31	Y31	Z31	X32	Y32	Z32	X33	Y33	Z33	X34	Y34	Z34	X35	Y35	Z35	X36	Y36	Z36	X37	Y37	Z37	X38	Y38	Z38	X39	Y39	Z39	X40	Y40	Z40	X41	Y41	Z41	X42	Y42	Z42	X43	Y43	Z43	X44	Y44	Z44	X45	Y45	Z45	X46	Y46	Z46	X47	Y47	Z47	X48	Y48	Z48
																																																																																																																																																	
164	1.63	810.18207	1607.89783	-1479.77954	761.24127	1603.90051	-1356.30237	687.10339	1576.63074	-1525.61023	643.52057	1571.93689	-1402.76086	630.18195	1402.32507	-1472.06238	618.49554	1083.31982	-1462.15503	754.65027	1333.99133	-1457.30701	811.82959	1174.08142	-1454.86658	581.49097	1220.62854	-1373.07251	719.84344	1364.69434	-1618.66394	692.83936	1165.53381	-1684.88123	676.78595	1041.91418	-1692.08459	664.6424	911.44659	-1692.55286	631.67468	792.39594	-1665.87122	629.15912	805.14496	-1722.1781	568.37634	736.13715	-1712.53503	690.58337	1359.44324	-1303.06726	724.4989	1144.16211	-1223.16333	765.33734	1040.29016	-1208.56482	836.49072	924.53302	-1210.26282	908.25452	858.49933	-1246.86731	878.48297	833.36359	-1209.74182	935.94812	788.45667	-1216.38818	809.60052	941.99487	-1563.85034	783.82904	924.81653	-1329.3446	641.38373	949.56842	-1532.97998	628.31299	949.38031	-1383.37244	822.40082	646.39929	-1625.19421	885.29181	482.33722	-1582.76526	868.86798	282.50293	-1597.56775	874.59961	71.8292	-1565.91968	834.61749	35.29244	-1534.04773	1027.22766	37.64862	-1530.60657	710.66919	625.63696	-1291.11218	707.19196	445.21475	-1316.08179	556.99652	318.26474	-1322.41504	403.00677	171.85632	-1374.3313	357.03787	184.92032	-1429.27783	455.52042	37.65337	-1399.76758	719.66876	1676.39575	-1457.86572	NaN	NaN	NaN	NaN	NaN	NaN	NaN	NaN	NaN	NaN	NaN	NaN	NaN	NaN	NaN	NaN	NaN	NaN	NaN	NaN	NaN	NaN	NaN	NaN
165	1.64	822.40192	1608.59717	-1479.31665	772.69958	1604.35022	-1356.22314	699.60004	1577.14709	-1525.99658	655.34515	1572.28064	-1403.41443	642.71185	1402.60559	-1473.36462	630.12695	1084.53223	-1462.97375	767.43976	1334.52612	-1457.43774	824.92786	1174.77686	-1454.84705	593.88629	1221.13123	-1374.46667	734.30634	1365.61328	-1618.88232	708.71222	1166.62598	-1685.95007	693.15033	1043.00415	-1693.17773	681.06744	912.51025	-1693.79712	648.54541	793.38287	-1667.57263	646.41418	806.06067	-1723.93408	586.31335	736.46515	-1715.2002	702.37012	1359.95227	-1303.81592	734.97485	1144.37915	-1224.40906	774.81281	1040.06653	-1209.95361	844.13525	923.00732	-1211.12061	915.1795	855.83868	-1247.16968	884.62164	831.18494	-1210.21008	941.17004	784.88971	-1216.69629	822.40344	943.46106	-1564.50635	796.68408	925.24658	-1330.2157	654.1684	950.70844	-1532.88708	640.46954	949.3916	-1383.58484	834.08777	646.41986	-1625.56567	895.23401	482.11969	-1584.19946	874.40637	282.46494	-1598.36816	875.08472	71.76725	-1565.89587	834.50293	35.32558	-1534.05481	1027.42749	37.5661	-1530.31665	729.68823	623.70471	-1291.4292	731.07666	443.71991	-1316.06396	579.40247	320.2081	-1322.74158	422.14575	177.13252	-1373.80298	377.43808	196.29889	-1428.98511	461.005	40.52893	-1401.04932	NaN	NaN	NaN	NaN	NaN	NaN	NaN	NaN	NaN	NaN	NaN	NaN	NaN	NaN	NaN	NaN	NaN	NaN	NaN	NaN	NaN	NaN	NaN	NaN	NaN	NaN	NaN
166	1.65	834.46191	1609.3606	-1478.83228	784.10992	1604.99109	-1356.02869	712.08575	1577.51453	-1526.23096	667.07947	1572.41248	-1403.9574	655.32623	1403.07751	-1474.49109	643.77368	1084.56604	-1464.32751	780.14984	1335.02478	-1457.39844	837.74493	1175.35864	-1454.6134	606.09631	1221.5022	-1375.82666	748.6405	1366.49377	-1618.99268	724.62457	1167.60535	-1686.98657	709.70416	1044.01685	-1694.51404	698.26703	913.42786	-1695.09888	666.36249	794.11938	-1669.37524	664.63257	806.75366	-1725.6405	605.90747	736.17377	-1717.64355	713.83234	1360.5376	-1304.42688	745.17401	1144.41272	-1225.47717	784.14978	1039.74731	-1211.19641	851.65088	921.63367	-1211.78638	921.69885	852.95728	-1247.49451	890.59564	828.95135	-1210.57861	945.85095	781.08624	-1217.12219	834.75366	944.65314	-1565.11853	808.8277	925.51526	-1330.84656	666.36346	951.875	-1533.03137	652.64923	949.02698	-1383.96887	845.98785	647.11115	-1626.38501	903.36877	481.54889	-1585.95044	878.83099	282.1156	-1599.49463	875.02075	72.02763	-1565.98633	834.45581	35.45491	-1534.13269	1027.6145	37.28075	-1530.37207	748.17297	622.04303	-1291.57324	754.7973	442.28223	-1316.42371	602.85864	321.34692	-1322.91138	441.49124	183.07376	-1373.92615	397.85837	207.01196	-1428.54639	471.375	45.89247	-1401.50781	NaN	NaN	NaN	NaN	NaN	NaN	NaN	NaN	NaN	NaN	NaN	NaN	NaN	NaN	NaN	NaN	NaN	NaN	NaN	NaN	NaN	NaN	NaN	NaN	NaN	NaN	NaN
167	1.66	846.51135	1610.19104	-1478.27295	795.32983	1605.50452	-1355.76221	724.46417	1577.97546	-1526.36218	678.76373	1572.57056	-1404.29907	667.63733	1403.46875	-1475.49243	656.24139	1085.25928	-1465.29993	792.60272	1335.51672	-1457.18262	850.21539	1175.83008	-1454.07654	617.95154	1222.01965	-1377.16919	762.99426	1367.19934	-1618.90784	740.59613	1168.47144	-1687.90979	726.27472	1044.81384	-1695.84143	716.0296	914.15686	-1696.42554	685.18622	794.70538	-1671.14771	683.77032	807.22681	-1727.29565	627.04266	735.16943	-1719.89661	724.95483	1360.87952	-1304.92493	755.229	1144.23438	-1226.42065	793.30225	1039.25928	-1212.25549	858.88141	919.9588	-1212.40466	927.8999	849.85437	-1247.79126	896.20422	826.59595	-1210.83752	950.15741	777.06726	-1217.55554	847.04565	945.69403	-1565.63123	820.3667	925.62476	-1331.20752	678.60193	952.67902	-1533.32056	664.41498	948.55597	-1384.52466	857.09625	648.50903	-1627.64014	910.57635	480.9342	-1587.53186	882.51282	281.7818	-1600.66431	875.59296	71.87521	-1566.61499	834.40442	35.69149	-1534.25122	1027.82605	37.01042	-1530.23694	765.63281	620.59851	-1291.71228	778.35492	441.1199	-1316.69116	627.00958	321.47726	-1322.49768	460.74731	190.29652	-1375.29932	417.86731	214.63162	-1431.02405	487.87909	52.35986	-1399.34338	754.64752	1677.87451	-1457.95178	NaN	NaN	NaN	NaN	NaN	NaN	NaN	NaN	NaN	NaN	NaN	NaN	NaN	NaN	NaN	NaN	NaN	NaN	NaN	NaN	NaN	NaN	NaN	NaN
